<?xml version="1.0" encoding="UTF-8" standalone="no"?>
<!-- Created with Inkscape (http://www.inkscape.org/) -->

<svg
   width="20"
   height="20"
   viewBox="0 0 20 20"
   version="1.1"
   id="svg1"
   sodipodi:docname="head.svg"
   inkscape:export-filename="../Graphics/tail_up.png"
   inkscape:export-xdpi="96"
   inkscape:export-ydpi="96"
   inkscape:version="1.3 (0e150ed, 2023-07-21)"
   xmlns:inkscape="http://www.inkscape.org/namespaces/inkscape"
   xmlns:sodipodi="http://sodipodi.sourceforge.net/DTD/sodipodi-0.dtd"
   xmlns="http://www.w3.org/2000/svg"
   xmlns:svg="http://www.w3.org/2000/svg">
  <sodipodi:namedview
     id="namedview1"
     pagecolor="#ffffff"
     bordercolor="#000000"
     borderopacity="0.25"
     inkscape:showpageshadow="2"
     inkscape:pageopacity="0.0"
     inkscape:pagecheckerboard="0"
     inkscape:deskcolor="#d1d1d1"
     inkscape:document-units="px"
     showgrid="true"
     inkscape:zoom="36.248332"
     inkscape:cx="9.5038857"
     inkscape:cy="10.248748"
     inkscape:window-width="1440"
     inkscape:window-height="1212"
     inkscape:window-x="0"
     inkscape:window-y="25"
     inkscape:window-maximized="0"
     inkscape:current-layer="layer1">
    <inkscape:grid
       id="grid1"
       units="px"
       originx="0"
       originy="0"
       spacingx="1"
       spacingy="1"
       empcolor="#0099e5"
       empopacity="0.30196078"
       color="#0099e5"
       opacity="0.14901961"
       empspacing="5"
       dotted="false"
       gridanglex="30"
       gridanglez="30"
       visible="true" />
  </sodipodi:namedview>
  <defs
     id="defs1">
    <inkscape:path-effect
       effect="powerstroke"
       id="path-effect43"
       is_visible="true"
       lpeversion="1.3"
       scale_width="1"
       interpolator_type="CentripetalCatmullRom"
       interpolator_beta="0.75"
       start_linecap_type="round"
       end_linecap_type="round"
       offset_points="6.774291,0.41381215"
       linejoin_type="spiro"
       miter_limit="4"
       not_jump="true"
       sort_points="true"
       message="&lt;b&gt;Ctrl + clic&lt;/b&gt; su un nodo esistente e spostarlo" />
    <inkscape:path-effect
       effect="simplify"
       id="path-effect42"
       is_visible="true"
       lpeversion="1.3"
       threshold="0.012"
       steps="1"
       smooth_angles="0"
       helper_size="0"
       simplify_individual_paths="false"
       simplify_just_coalesce="false"
       step="1" />
    <inkscape:path-effect
       effect="powerstroke"
       id="path-effect41"
       is_visible="true"
       lpeversion="1.3"
       scale_width="1"
       interpolator_type="CentripetalCatmullRom"
       interpolator_beta="0.75"
       start_linecap_type="round"
       end_linecap_type="round"
       offset_points="2.6385323,0.41381215"
       linejoin_type="spiro"
       miter_limit="4"
       not_jump="true"
       sort_points="true"
       message="&lt;b&gt;Ctrl + clic&lt;/b&gt; su un nodo esistente e spostarlo" />
    <inkscape:path-effect
       effect="simplify"
       id="path-effect40"
       is_visible="true"
       lpeversion="1.3"
       threshold="0.012"
       steps="1"
       smooth_angles="0"
       helper_size="0"
       simplify_individual_paths="false"
       simplify_just_coalesce="false"
       step="1" />
    <inkscape:path-effect
       effect="powerstroke"
       id="path-effect39"
       is_visible="true"
       lpeversion="1.3"
       scale_width="1"
       interpolator_type="CentripetalCatmullRom"
       interpolator_beta="0.75"
       start_linecap_type="round"
       end_linecap_type="round"
       offset_points="1.5346315,0.41381215"
       linejoin_type="spiro"
       miter_limit="4"
       not_jump="true"
       sort_points="true"
       message="&lt;b&gt;Ctrl + clic&lt;/b&gt; su un nodo esistente e spostarlo" />
    <inkscape:path-effect
       effect="simplify"
       id="path-effect38"
       is_visible="true"
       lpeversion="1.3"
       threshold="0.012"
       steps="1"
       smooth_angles="0"
       helper_size="0"
       simplify_individual_paths="false"
       simplify_just_coalesce="false"
       step="1" />
    <inkscape:path-effect
       effect="powerstroke"
       id="path-effect37"
       is_visible="true"
       lpeversion="1.3"
       scale_width="1"
       interpolator_type="CentripetalCatmullRom"
       interpolator_beta="0.75"
       start_linecap_type="round"
       end_linecap_type="round"
       offset_points="1.8007677,0.41381215"
       linejoin_type="spiro"
       miter_limit="4"
       not_jump="true"
       sort_points="true"
       message="&lt;b&gt;Ctrl + clic&lt;/b&gt; su un nodo esistente e spostarlo" />
    <inkscape:path-effect
       effect="simplify"
       id="path-effect36"
       is_visible="true"
       lpeversion="1.3"
       threshold="0.012"
       steps="1"
       smooth_angles="0"
       helper_size="0"
       simplify_individual_paths="false"
       simplify_just_coalesce="false"
       step="1" />
    <inkscape:path-effect
       effect="powerstroke"
       id="path-effect35"
       is_visible="true"
       lpeversion="1.3"
       scale_width="1"
       interpolator_type="CentripetalCatmullRom"
       interpolator_beta="0.75"
       start_linecap_type="round"
       end_linecap_type="round"
       offset_points="3.8753675,0.41381215"
       linejoin_type="spiro"
       miter_limit="4"
       not_jump="true"
       sort_points="true"
       message="&lt;b&gt;Ctrl + clic&lt;/b&gt; su un nodo esistente e spostarlo" />
    <inkscape:path-effect
       effect="simplify"
       id="path-effect34"
       is_visible="true"
       lpeversion="1.3"
       threshold="0.012"
       steps="1"
       smooth_angles="0"
       helper_size="0"
       simplify_individual_paths="false"
       simplify_just_coalesce="false"
       step="1" />
    <inkscape:path-effect
       effect="powerstroke"
       id="path-effect33"
       is_visible="true"
       lpeversion="1.3"
       scale_width="1"
       interpolator_type="CentripetalCatmullRom"
       interpolator_beta="0.75"
       start_linecap_type="round"
       end_linecap_type="round"
       offset_points="6.0523176,0.41381215"
       linejoin_type="spiro"
       miter_limit="4"
       not_jump="true"
       sort_points="true"
       message="&lt;b&gt;Ctrl + clic&lt;/b&gt; su un nodo esistente e spostarlo" />
    <inkscape:path-effect
       effect="simplify"
       id="path-effect32"
       is_visible="true"
       lpeversion="1.3"
       threshold="0.012"
       steps="1"
       smooth_angles="0"
       helper_size="0"
       simplify_individual_paths="false"
       simplify_just_coalesce="false"
       step="1" />
    <inkscape:path-effect
       effect="powerstroke"
       id="path-effect31"
       is_visible="true"
       lpeversion="1.3"
       scale_width="1"
       interpolator_type="CentripetalCatmullRom"
       interpolator_beta="0.75"
       start_linecap_type="round"
       end_linecap_type="round"
       offset_points="7.6341804,0.41381215"
       linejoin_type="spiro"
       miter_limit="4"
       not_jump="true"
       sort_points="true"
       message="&lt;b&gt;Ctrl + clic&lt;/b&gt; su un nodo esistente e spostarlo" />
    <inkscape:path-effect
       effect="simplify"
       id="path-effect30"
       is_visible="true"
       lpeversion="1.3"
       threshold="0.012"
       steps="1"
       smooth_angles="0"
       helper_size="0"
       simplify_individual_paths="false"
       simplify_just_coalesce="false"
       step="1" />
    <inkscape:path-effect
       effect="powerstroke"
       id="path-effect29"
       is_visible="true"
       lpeversion="1.3"
       scale_width="1"
       interpolator_type="CentripetalCatmullRom"
       interpolator_beta="0.75"
       start_linecap_type="round"
       end_linecap_type="round"
       offset_points="1.92763,0.41381215"
       linejoin_type="spiro"
       miter_limit="4"
       not_jump="true"
       sort_points="true"
       message="&lt;b&gt;Ctrl + clic&lt;/b&gt; su un nodo esistente e spostarlo" />
    <inkscape:path-effect
       effect="simplify"
       id="path-effect28"
       is_visible="true"
       lpeversion="1.3"
       threshold="0.012"
       steps="1"
       smooth_angles="0"
       helper_size="0"
       simplify_individual_paths="false"
       simplify_just_coalesce="false"
       step="1" />
    <inkscape:path-effect
       effect="powerstroke"
       id="path-effect27"
       is_visible="true"
       lpeversion="1.3"
       scale_width="1"
       interpolator_type="CentripetalCatmullRom"
       interpolator_beta="0.75"
       start_linecap_type="round"
       end_linecap_type="round"
       offset_points="1.7150967,0.41381215"
       linejoin_type="spiro"
       miter_limit="4"
       not_jump="true"
       sort_points="true"
       message="&lt;b&gt;Ctrl + clic&lt;/b&gt; su un nodo esistente e spostarlo" />
    <inkscape:path-effect
       effect="simplify"
       id="path-effect26"
       is_visible="true"
       lpeversion="1.3"
       threshold="0.012"
       steps="1"
       smooth_angles="0"
       helper_size="0"
       simplify_individual_paths="false"
       simplify_just_coalesce="false"
       step="1" />
    <inkscape:path-effect
       effect="powerstroke"
       id="path-effect25"
       is_visible="true"
       lpeversion="1.3"
       scale_width="1"
       interpolator_type="CentripetalCatmullRom"
       interpolator_beta="0.75"
       start_linecap_type="round"
       end_linecap_type="round"
       offset_points="67,0.41381215"
       linejoin_type="spiro"
       miter_limit="4"
       not_jump="true"
       sort_points="true"
       message="&lt;b&gt;Ctrl + clic&lt;/b&gt; su un nodo esistente e spostarlo" />
    <inkscape:path-effect
       effect="simplify"
       id="path-effect24"
       is_visible="true"
       lpeversion="1.3"
       threshold="0.012"
       steps="1"
       smooth_angles="0"
       helper_size="0"
       simplify_individual_paths="false"
       simplify_just_coalesce="false"
       step="1" />
    <inkscape:path-effect
       effect="powerstroke"
       id="path-effect23"
       is_visible="true"
       lpeversion="1.3"
       scale_width="1"
       interpolator_type="CentripetalCatmullRom"
       interpolator_beta="0.75"
       start_linecap_type="round"
       end_linecap_type="round"
       offset_points="3.7038907,0.41381215"
       linejoin_type="spiro"
       miter_limit="4"
       not_jump="true"
       sort_points="true"
       message="&lt;b&gt;Ctrl + clic&lt;/b&gt; su un nodo esistente e spostarlo" />
    <inkscape:path-effect
       effect="simplify"
       id="path-effect22"
       is_visible="true"
       lpeversion="1.3"
       threshold="0.012"
       steps="1"
       smooth_angles="0"
       helper_size="0"
       simplify_individual_paths="false"
       simplify_just_coalesce="false"
       step="1" />
    <inkscape:path-effect
       effect="powerstroke"
       id="path-effect21"
       is_visible="true"
       lpeversion="1.3"
       scale_width="1"
       interpolator_type="CentripetalCatmullRom"
       interpolator_beta="0.75"
       start_linecap_type="round"
       end_linecap_type="round"
       offset_points="3.0237138,0.41381215"
       linejoin_type="spiro"
       miter_limit="4"
       not_jump="true"
       sort_points="true"
       message="&lt;b&gt;Ctrl + clic&lt;/b&gt; su un nodo esistente e spostarlo" />
    <inkscape:path-effect
       effect="simplify"
       id="path-effect20"
       is_visible="true"
       lpeversion="1.3"
       threshold="0.012"
       steps="1"
       smooth_angles="0"
       helper_size="0"
       simplify_individual_paths="false"
       simplify_just_coalesce="false"
       step="1" />
    <inkscape:path-effect
       effect="powerstroke"
       id="path-effect19"
       is_visible="true"
       lpeversion="1.3"
       scale_width="1"
       interpolator_type="CentripetalCatmullRom"
       interpolator_beta="0.75"
       start_linecap_type="round"
       end_linecap_type="round"
       offset_points="2.8195525,0.41381215"
       linejoin_type="spiro"
       miter_limit="4"
       not_jump="true"
       sort_points="true"
       message="&lt;b&gt;Ctrl + clic&lt;/b&gt; su un nodo esistente e spostarlo" />
    <inkscape:path-effect
       effect="simplify"
       id="path-effect18"
       is_visible="true"
       lpeversion="1.3"
       threshold="0.012"
       steps="1"
       smooth_angles="0"
       helper_size="0"
       simplify_individual_paths="false"
       simplify_just_coalesce="false"
       step="1" />
    <inkscape:path-effect
       effect="powerstroke"
       id="path-effect17"
       is_visible="true"
       lpeversion="1.3"
       scale_width="1"
       interpolator_type="CentripetalCatmullRom"
       interpolator_beta="0.75"
       start_linecap_type="round"
       end_linecap_type="round"
       offset_points="5.9400767,0.41381215"
       linejoin_type="spiro"
       miter_limit="4"
       not_jump="true"
       sort_points="true"
       message="&lt;b&gt;Ctrl + clic&lt;/b&gt; su un nodo esistente e spostarlo" />
    <inkscape:path-effect
       effect="simplify"
       id="path-effect16"
       is_visible="true"
       lpeversion="1.3"
       threshold="0.012"
       steps="1"
       smooth_angles="0"
       helper_size="0"
       simplify_individual_paths="false"
       simplify_just_coalesce="false"
       step="1" />
    <inkscape:path-effect
       effect="powerstroke"
       id="path-effect15"
       is_visible="true"
       lpeversion="1.3"
       scale_width="1"
       interpolator_type="CentripetalCatmullRom"
       interpolator_beta="0.75"
       start_linecap_type="round"
       end_linecap_type="round"
       offset_points="4.5982703,0.41381215"
       linejoin_type="spiro"
       miter_limit="4"
       not_jump="true"
       sort_points="true"
       message="&lt;b&gt;Ctrl + clic&lt;/b&gt; su un nodo esistente e spostarlo" />
    <inkscape:path-effect
       effect="simplify"
       id="path-effect14"
       is_visible="true"
       lpeversion="1.3"
       threshold="0.012"
       steps="1"
       smooth_angles="0"
       helper_size="0"
       simplify_individual_paths="false"
       simplify_just_coalesce="false"
       step="1" />
    <inkscape:path-effect
       effect="powerstroke"
       id="path-effect13"
       is_visible="true"
       lpeversion="1.3"
       scale_width="1"
       interpolator_type="CentripetalCatmullRom"
       interpolator_beta="0.75"
       start_linecap_type="round"
       end_linecap_type="round"
       offset_points="1.4225687,0.41381215"
       linejoin_type="spiro"
       miter_limit="4"
       not_jump="true"
       sort_points="true"
       message="&lt;b&gt;Ctrl + clic&lt;/b&gt; su un nodo esistente e spostarlo" />
    <inkscape:path-effect
       effect="simplify"
       id="path-effect12"
       is_visible="true"
       lpeversion="1.3"
       threshold="0.012"
       steps="1"
       smooth_angles="0"
       helper_size="0"
       simplify_individual_paths="false"
       simplify_just_coalesce="false"
       step="1" />
    <inkscape:path-effect
       effect="skeletal"
       id="path-effect11"
       is_visible="true"
       lpeversion="1"
       pattern="M 0,18.867925 C 0,8.4528302 8.4528302,0 18.867925,0 c 10.415094,0 18.867924,8.4528302 18.867924,18.867925 0,10.415094 -8.45283,18.867924 -18.867924,18.867924 C 8.4528302,37.735849 0,29.283019 0,18.867925 Z"
       copytype="single_stretched"
       prop_scale="1"
       scale_y_rel="false"
       spacing="0"
       normal_offset="0"
       tang_offset="0"
       prop_units="false"
       vertical_pattern="false"
       hide_knot="false"
       fuse_tolerance="0" />
    <inkscape:path-effect
       effect="spiro"
       id="path-effect10"
       is_visible="true"
       lpeversion="1" />
  </defs>
  <g
     inkscape:label="Livello 1"
     inkscape:groupmode="layer"
     id="layer1">
    <path
       style="fill:#0000ff"
       d="m 7.9451932,1.9587108 c 1.4334204,-1.95002269 2.6859158,-1.9855479 4.0553588,0.027588 m 0,0 7.945194,13.1592252 0.02758,4.882984 L 0,20.028508 0,14.952412 7.9451932,1.9587108"
       id="path1"
       sodipodi:nodetypes="cccccccc" />
    <path
       style="fill:#967b00;fill-opacity:1;stroke-width:0.0275875"
       d="M 5.6410872e-4,17.497357 0.00112822,14.98 3.9720678,8.4870573 C 6.1560844,4.9159388 8.0143341,1.8992483 8.1015119,1.7833004 8.4478793,1.322625 8.9232035,0.8888587 9.2969796,0.6923529 9.5821709,0.54241887 9.6790372,0.50142014 9.9848776,0.51645615 c 0.3060684,0.0150472 0.6153324,0.0961535 0.9126994,0.29718499 0.237104,0.16029237 0.630877,0.55867666 0.872768,0.88298866 0.107511,0.1441446 1.987855,3.2291141 4.178541,6.8554879 l 4.065828,6.4554703 -0.06897,2.572536 0.01379,2.434599 -9.9797694,-4e-6 L 0,20.014714 Z"
       id="path4"
       sodipodi:nodetypes="ccssssssscccccc" />
    <rect
       style="fill:#967b00;fill-opacity:1"
       id="rect4"
       width="2.0414739"
       height="1.931123"
       x="5.9864826"
       y="9.1314545" />
    <path
       style="fill:#ffff00;fill-opacity:1;stroke:none"
       d="M 8.1107181,3.9450091 11.890202,3.8346592"
       id="path12" />
    <path
       style="fill:#ffff00;fill-opacity:1;stroke:none"
       d="M 7.6969059,3.1173848 9.959079,18.428434"
       id="path15" />
    <path
       style="fill:#ffff00;fill-opacity:1;stroke:none"
       d="M 9.959079,18.428434 9.6832043,12.083315"
       id="path16" />
    <path
       d="m 9.6009653,1.6068536 c -9.255e-4,0.018382 -0.00144,0.036289 -0.00174,0.054118 -3.096e-4,0.018445 -3.868e-4,0.03641 -3.71e-4,0.054505 2.21e-5,0.021627 1.743e-4,0.042144 2.973e-4,0.063318 1.828e-4,0.030922 2.909e-4,0.060907 -9.4e-5,0.08985 -2.773e-4,0.0208 -8.003e-4,0.040852 -0.00173,0.060166 -7.065e-4,0.014618 -0.00163,0.028345 -0.00282,0.041254 -0.001,0.010777 -0.00213,0.020269 -0.00339,0.028663 -0.00109,0.00726 -0.00212,0.012659 -0.003,0.016557 l 0.048876,-0.071398 c -0.020012,0.020274 0,0 0,0 a 0.41381215,0.41381215 90 0 0 0.589014,0.5813986 c 0,0 -0.02001,0.020274 0,0 0.03728,-0.037768 0.07304,-0.077727 0.09868,-0.1241928 0.02563,-0.046466 0.04149,-0.097567 0.05648,-0.1484747 0.0013,-0.00445 0.0025,-0.00879 0.0037,-0.013019 0.0016,-0.00588 0.0031,-0.01158 0.0045,-0.017095 0.0022,-0.0087 0.0042,-0.01709 0.006,-0.025112 0.0061,-0.027253 0.01067,-0.052835 0.01412,-0.075843 0.004,-0.026781 0.0069,-0.052026 0.009,-0.075025 0.0026,-0.027646 0.0042,-0.053835 0.0054,-0.077808 0.0015,-0.031667 0.0023,-0.061781 0.0026,-0.089052 5e-4,-0.037625 3.37e-4,-0.074578 1.53e-4,-0.1057179 -1.33e-4,-0.02281 -2.64e-4,-0.04028 -2.84e-4,-0.059253 -1.3e-5,-0.015326 5.7e-5,-0.028023 2.54e-4,-0.03973 1.92e-4,-0.011308 4.7e-4,-0.019674 8.14e-4,-0.026493 A 0.41381215,0.41381215 90 0 0 9.6009653,1.6068536 Z"
       id="path-1"
       inkscape:path-effect="#path-effect24;#path-effect25"
       inkscape:original-d="m 10.014254,1.6276611 c -0.0086,0.170225 0.02586,0.4983003 -0.082762,0.6069245"
       style="fill:#ffff00;fill-opacity:1;fill-rule:nonzero;stroke:none" />
    <path
       d="m 7.4714458,4.7720034 c 0.1745337,-0.00964 0.4846033,-0.023547 0.8877727,-0.020519 0.2553016,0.00191 0.5465477,0.010495 0.8762593,0.030347 0.022273,0.00134 0.045089,0.00276 0.068442,0.00425 0.2789556,0.01783 0.6154977,0.045607 1.018178,0.090777 0.267929,0.030054 0.556513,0.06681 0.87507,0.1123177 -0.0043,-6.338e-4 -2.35e-4,-2.72e-5 0.01313,0.00282 0.01493,0.00322 0.03125,0.00701 0.05285,0.012055 0.03331,0.0078 0.07295,0.017167 0.111363,0.025851 0.06686,0.015127 0.139207,0.030444 0.214412,0.043345 0.04913,0.00841 0.101435,0.016156 0.156024,0.021835 0.04213,0.00436 0.08763,0.00773 0.135604,0.00856 0.0383,6.294e-4 0.08088,-2.704e-4 0.126335,-0.00478 0.04108,-0.00413 0.08987,-0.011626 0.142443,-0.026952 0.04858,-0.014252 0.106979,-0.036807 0.166779,-0.076585 0.0514,-0.034171 0.100918,-0.079626 0.141457,-0.1375626 0.03749,-0.053276 0.06074,-0.1084544 0.0745,-0.1573181 0.01789,-0.063166 0.02025,-0.1177078 0.02024,-0.1486003 a 0.41381215,0.41381215 90 0 0 -0.827624,2.028e-4 c -3e-6,-0.012597 8.05e-4,-0.040844 0.01091,-0.076524 0.0078,-0.027595 0.0214,-0.060313 0.04449,-0.093126 0.02398,-0.034273 0.05214,-0.059204 0.07773,-0.076218 0.0283,-0.018825 0.05009,-0.025943 0.05921,-0.028619 0.01008,-0.00294 0.01379,-0.00284 0.0076,-0.00222 -0.0055,5.434e-4 -0.01508,0.00105 -0.03013,7.984e-4 -0.0182,-3.132e-4 -0.03927,-0.00168 -0.0641,-0.00425 -0.03174,-0.0033 -0.06543,-0.00816 -0.101662,-0.014366 -0.05529,-0.00949 -0.112166,-0.021394 -0.171633,-0.034848 -0.03445,-0.00779 -0.06946,-0.016064 -0.105543,-0.024513 -0.02111,-0.00493 -0.04395,-0.010257 -0.0678,-0.015402 -0.0153,-0.00326 -0.04009,-0.00857 -0.06807,-0.012667 C 10.988088,4.1232789 10.691217,4.0854459 10.414356,4.0543905 9.9980161,4.0076877 9.6483013,3.9787784 9.3567193,3.960141 9.3323353,3.958582 9.3084971,3.957104 9.2852187,3.9557025 8.9404834,3.9349461 8.6347053,3.9258973 8.3654207,3.9238829 7.9398994,3.9206881 7.6116665,3.9353702 7.4257916,3.9456392 a 0.41381215,0.41381215 90 0 0 0.045654,0.8263642 z"
       id="path-1-7"
       inkscape:path-effect="#path-effect28;#path-effect29"
       inkscape:original-d="m 7.4486187,4.3588213 c 1.2824503,-0.07083 2.5456317,0.040494 3.8070713,0.2206998 0.140936,0.020134 0.8828,0.254614 0.8828,-0.027588"
       style="fill:#ffff00;fill-opacity:1;fill-rule:nonzero;stroke:none" />
    <path
       d="m 7.0348065,7.2830938 c 0.1937215,0 0.4458545,0 0.7448619,0 0.146564,4.7e-6 0.3575279,-0.00152 0.529238,8.54e-4 0.1239803,0.00172 0.2564202,0.00558 0.3898073,0.014727 0.1072717,0.00735 0.2175625,0.018276 0.328383,0.034744 0.088039,0.013074 0.1770481,0.029743 0.2659558,0.05094 0.056685,0.01352 0.1148448,0.028932 0.1770212,0.046205 0.076683,0.021337 0.1541724,0.044084 0.2346826,0.068131 0.069667,0.020827 0.1394913,0.042011 0.2104923,0.063584 -0.1778302,-0.054032 0.3005844,0.091304 0.1227534,0.037273 0.177193,0.053719 0.381818,0.1150664 0.588397,0.1718462 0.137373,0.03775 0.285878,0.076406 0.440145,0.1119134 0.115977,0.026673 0.239384,0.052555 0.36744,0.074806 0.100942,0.017517 0.20772,0.033313 0.31834,0.04489 0.08979,0.00937 0.184691,0.016257 0.282918,0.018152 0.08754,0.00165 0.180779,-5.518e-4 0.277191,-0.010066 0.08547,-0.00848 0.177339,-0.023045 0.271513,-0.048409 0.01862,-0.00502 0.03742,-0.010489 0.05645,-0.016493 0.01387,-0.00438 0.02787,-0.00904 0.04199,-0.014022 0.01383,-0.00488 0.02774,-0.010056 0.04172,-0.015551 0.0054,-0.00215 0.0084,-0.00337 0.0115,-0.00459 0.0077,-0.00317 0.01076,-0.00443 0.01378,-0.00568 0.0078,-0.00329 0.01076,-0.00458 0.01374,-0.00586 0.0078,-0.00342 0.01076,-0.00474 0.0137,-0.00605 0.0078,-0.00355 0.01076,-0.00491 0.01366,-0.00624 0.0078,-0.00369 0.01075,-0.00507 0.01361,-0.00643 0.0079,-0.00383 0.01075,-0.00524 0.01356,-0.00663 -0.02121,0.010608 -0.03931,0.01537 -0.04467,0.016705 -0.0064,0.00159 -0.0083,0.00146 0.0098,-0.00106 0.01043,-0.00146 0.03838,-0.00505 0.06681,-0.010634 0.02528,-0.00501 0.05955,-0.013021 0.098,-0.02768 0.05468,-0.020895 0.117135,-0.055077 0.173463,-0.1115024 A 0.41381215,0.41381215 90 0 0 12.535316,7.1562608 c 0.04272,-0.04279 0.08691,-0.065451 0.117121,-0.076993 0.02049,-0.00781 0.03486,-0.010667 0.037,-0.011091 0.0037,-7.298e-4 -0.0024,3.258e-4 -0.0211,0.00294 -0.01502,0.00209 -0.05352,0.00725 -0.09507,0.017569 -0.03079,0.00767 -0.0749,0.020819 -0.123158,0.044932 -4.38e-4,2.061e-4 -0.0033,0.00162 -0.0063,0.00307 0.0021,-0.00102 -8.48e-4,3.629e-4 -0.0038,0.00177 0.002,-9.493e-4 -9.61e-4,4.029e-4 -0.0039,0.00177 0.0019,-8.8e-4 -0.0011,4.399e-4 -0.0041,0.00177 0.0018,-8.138e-4 -0.0012,4.741e-4 -0.0042,0.00177 0.0017,-7.504e-4 -0.0013,5.056e-4 -0.0043,0.00176 0.0016,-6.898e-4 -0.0014,5.346e-4 -0.0045,0.00176 -0.0023,8.904e-4 -0.0071,0.00267 -0.01202,0.00442 -0.0051,0.00178 -0.01026,0.00352 -0.01561,0.00521 -0.0074,0.00232 -0.01494,0.00454 -0.02278,0.00665 -0.04085,0.011001 -0.0866,0.018855 -0.137655,0.023921 -0.05714,0.00564 -0.117156,0.00738 -0.179894,0.00619 -0.06996,-0.00135 -0.141026,-0.00634 -0.212691,-0.01382 -0.08808,-0.00922 -0.17598,-0.022109 -0.262769,-0.03717 -0.109935,-0.019103 -0.218344,-0.04176 -0.323469,-0.065937 C 11.112394,7.0445997 10.975605,7.0090547 10.845723,6.9733629 10.650249,6.9196352 10.454341,6.8609493 10.278055,6.8075052 10.259264,6.8018116 10.174579,6.7760738 10.155851,6.7703995 10.084839,6.7488233 10.013434,6.7271581 9.9417119,6.7057167 9.8590513,6.6810274 9.775899,6.6565942 9.69177,6.6331853 9.6239253,6.6143371 9.5551804,6.5960393 9.4850251,6.5793067 9.370205,6.5519323 9.257515,6.5309364 9.1487069,6.5147781 9.0119639,6.494458 8.8794273,6.4814909 8.7552984,6.4729871 8.6013744,6.4624352 8.4526077,6.4582373 8.320376,6.456403 8.1411695,6.4539214 7.9156123,6.4554738 7.7796815,6.4554696 c -0.2990205,-10e-8 -0.5511535,-10e-8 -0.744875,-10e-8 a 0.41381215,0.41381215 90 0 0 0,0.8276243 z"
       id="path-1-74"
       inkscape:path-effect="#path-effect30;#path-effect31"
       inkscape:original-d="m 7.0348065,6.8692817 c 0.2482873,0 0.4965746,0 0.7448619,0 0.5397521,0 1.0705699,-0.014239 1.6000736,0.1103499 0.788076,0.1854296 2.522155,0.8907454 3.255322,0.524162 0.06301,-0.031504 0.154606,-0.016668 0.193113,-0.055175"
       style="fill:#ffff00;fill-opacity:1;fill-rule:nonzero;stroke:none" />
    <path
       style="fill:#ffff00;fill-opacity:1;stroke:none"
       d="M 13.904088,9.7383792 5.7381951,9.379742"
       id="path31" />
    <path
       d="m 4.8613617,10.234911 c 0.1649093,-0.0024 0.4296348,-0.0029 0.8113475,0.01324 0.2415862,0.01018 0.4939156,0.02524 0.7994757,0.04644 0.063198,0.0044 0.1286924,0.009 0.2005231,0.01419 0.2671271,0.01919 0.7575881,0.05648 1.1612037,0.0779 0.1269451,0.0067 0.2689147,0.0133 0.419397,0.01829 0.3373805,0.01123 0.6812843,0.01436 1.0484883,0.01293 0.533085,-0.0021 1.124907,-0.0149 1.657989,-0.01698 0.06664,-2.86e-4 0.134937,-4.94e-4 0.203229,-4.08e-4 0.113242,3.36e-4 0.228784,0.0038 0.350176,0.0083 0.186601,0.0069 0.387226,0.01647 0.585629,0.01939 0.130832,0.0019 0.263318,0.0011 0.397081,-0.0054 0.104778,-0.0051 0.208974,-0.01363 0.312768,-0.02696 0.126142,-0.01612 0.248181,-0.0377 0.35707,-0.05837 0.162259,-0.03078 0.307831,-0.06125 0.438566,-0.08366 0.105861,-0.01814 0.194967,-0.03015 0.276611,-0.03748 0.07885,-0.0071 0.141502,-0.0089 0.18867,-0.0089 a 0.41381215,0.41381215 90 0 0 5.4e-5,-0.8276239 c -0.06945,-4.6e-6 -0.156954,0.00271 -0.262746,0.01222 -0.108637,0.00975 -0.220279,0.025128 -0.342372,0.046051 -0.150244,0.025745 -0.302374,0.057688 -0.453066,0.086273 -0.102419,0.019439 -0.20575,0.037509 -0.307988,0.050578 -0.07894,0.010141 -0.161055,0.017004 -0.247781,0.021228 -0.111128,0.0054 -0.225261,0.00629 -0.344708,0.00454 -0.186056,-0.00274 -0.368618,-0.011556 -0.567184,-0.018917 -0.124248,-0.00459 -0.250883,-0.00845 -0.379034,-0.00883 -0.07125,-8.98e-5 -0.141299,1.252e-4 -0.208631,4.143e-4 -0.57195,0.0026 -1.0857108,0.014381 -1.6575581,0.016979 -0.3607175,0.0014 -0.6937731,-0.00169 -1.017788,-0.012479 C 8.1369252,9.5730301 8.0005992,9.5667382 7.8777941,9.5602145 7.4842991,9.5393314 7.0059578,9.5029572 6.7320138,9.483276 6.6597104,9.4780816 6.5935113,9.4733891 6.5294567,9.4689458 6.2196552,9.447456 5.9592763,9.4318662 5.7075603,9.4212587 5.3080101,9.4044163 5.0275044,9.4048049 4.8494301,9.4073725 a 0.41381215,0.41381215 90 0 0 0.011932,0.8275385 z"
       id="path-1-1"
       inkscape:path-effect="#path-effect36;#path-effect37"
       inkscape:original-d="m 4.8553959,9.8211416 c 1.0977552,-0.015813 2.1867109,0.1216769 3.2829097,0.1655249 0.997938,0.039917 2.0080544,0 3.0070354,0 0.516843,0 1.085456,0.064327 1.600073,0 0.449353,-0.056169 0.871846,-0.1931123 1.324199,-0.1931123"
       style="fill:#ffff00;fill-opacity:1;fill-rule:nonzero;stroke:none" />
    <path
       d="m 3.3080733,12.962738 c 0.3783864,-0.04863 1.0745619,-0.131492 2.031889,-0.197344 0.3651264,-0.02512 0.7626774,-0.04749 1.1996412,-0.06582 0.3012302,-0.01264 0.6478699,-0.02448 1.0472434,-0.03383 0.7755138,-0.01815 1.595874,-0.02367 2.6197291,-0.01993 0.993287,0.0036 2.076077,0.01682 3.228521,0.01683 0.05213,-3.8e-5 0.102622,-0.0013 0.153265,-0.0028 0.08526,-0.0026 0.167859,-0.0059 0.253629,-0.0093 0.142253,-0.0056 0.285888,-0.01096 0.428704,-0.0145 0.17484,-0.0043 0.347926,-0.0061 0.519684,-0.003 0.123528,0.0023 0.243654,0.007 0.361418,0.0156 0.09473,0.0069 0.18423,0.01605 0.270173,0.02847 0.06894,0.01 0.131156,0.02149 0.188802,0.03523 0.0503,0.01204 0.0916,0.02448 0.126988,0.03773 0.03519,0.01323 0.05697,0.02447 0.07094,0.03308 0.0117,0.0072 0.01182,0.0086 0.0099,0.0066 a 0.41381215,0.41381215 90 0 0 0.584988,-0.585448 c -0.04246,-0.04243 -0.09465,-0.08493 -0.160154,-0.12543 -0.06898,-0.04252 -0.140726,-0.07581 -0.214934,-0.103706 -0.07451,-0.0279 -0.149488,-0.04966 -0.225455,-0.06783 -0.08728,-0.02081 -0.174603,-0.03658 -0.262464,-0.04933 -0.109705,-0.01585 -0.219108,-0.02681 -0.328534,-0.03482 -0.136284,-0.0099 -0.271802,-0.01517 -0.406488,-0.01766 -0.187379,-0.0034 -0.37299,-0.0014 -0.555365,0.0031 -0.149225,0.0037 -0.297974,0.0093 -0.440458,0.01487 -0.08766,0.0034 -0.165649,0.0066 -0.2461,0.009 -0.0483,0.0014 -0.08922,0.0024 -0.128831,0.0024 -1.145078,-10e-6 -2.227656,-0.01319 -3.225199,-0.01683 -1.0284046,-0.0038 -1.8567071,0.0018 -2.6421189,0.02015 -0.4045854,0.0095 -0.7563318,0.02149 -1.0625625,0.03433 -0.4441806,0.01863 -0.8491049,0.04141 -1.221751,0.06704 -0.9779266,0.06727 -1.6909801,0.15207 -2.0805945,0.202145 a 0.41381215,0.41381215 90 0 0 0.1055022,0.820872 z"
       id="path-1-5"
       inkscape:path-effect="#path-effect38;#path-effect39"
       inkscape:original-d="M 3.2553222,12.552302 C 6.6187679,12.120038 10.041961,12.24884 13.435101,12.24884 c 0.509777,0 2.26701,-0.160688 2.675985,0.248287"
       style="fill:#ffff00;fill-opacity:1;fill-rule:nonzero;stroke:none" />
    <path
       d="m 1.7798131,16.166017 c 0.2790691,-0.0096 0.5904289,-0.01486 1.1282909,-0.0146 0.340947,1.66e-4 0.8883268,0.0035 1.3469879,-0.0051 0.067744,-0.0013 0.139973,-0.0029 0.2149823,-0.005 0.037443,-0.001 0.078457,-0.0023 0.1221021,-0.0038 0.2424078,-0.0085 0.4922232,-0.02551 0.7897385,-0.05119 0.3342937,-0.02886 0.6892483,-0.06601 1.0588115,-0.09247 0.1212851,-0.0087 0.2492688,-0.01646 0.3802989,-0.02184 0.4611681,-0.01929 0.9284409,-0.02575 1.4236891,-0.02697 0.6779929,-0.0017 1.3778637,0.0071 2.0955317,-0.0019 0.318347,-0.004 0.644092,-0.01168 0.972988,-0.02614 0.321982,-0.01429 0.641793,-0.04008 0.960571,-0.07015 0.469868,-0.04431 0.93376,-0.09735 1.391273,-0.135564 0.219018,-0.0183 0.435075,-0.03311 0.6496,-0.04232 0.147509,-0.0062 0.29805,-0.0051 0.451888,-0.0013 0.233849,0.0058 0.473999,0.01787 0.718316,0.01985 0.163122,0.0013 0.325108,-0.0019 0.487469,-0.01415 0.04725,-0.0035 0.09446,-0.0081 0.133184,-0.01182 0.160483,-0.01566 0.351481,-0.03797 0.484819,-0.05252 0.158175,-0.01726 0.287363,-0.02992 0.413422,-0.03861 0.121987,-0.0084 0.215805,-0.01117 0.293637,-0.01118 a 0.41381215,0.41381215 90 0 0 -1.3e-4,-0.827624 c -0.09843,1.5e-5 -0.211194,0.0036 -0.350329,0.01313 -0.142226,0.0098 -0.283913,0.02381 -0.446371,0.04154 -0.144163,0.01573 -0.320861,0.03646 -0.475067,0.05151 -0.03924,0.0038 -0.07782,0.0075 -0.115041,0.01026 -0.132861,0.01001 -0.270624,0.01305 -0.418913,0.01186 -0.221442,-0.0018 -0.456334,-0.01347 -0.704503,-0.01962 -0.161858,-0.004 -0.333145,-0.0056 -0.507508,0.0018 -0.228904,0.0098 -0.456511,0.0255 -0.683365,0.04445 -0.47435,0.03962 -0.941143,0.09307 -1.400086,0.136348 -0.311988,0.02942 -0.616754,0.05387 -0.919387,0.0673 -0.317806,0.01397 -0.634555,0.02147 -0.946875,0.0254 -0.7036398,0.0088 -1.4011622,1.4e-4 -2.0871546,0.0018 -0.5006523,0.0012 -0.9798908,0.0078 -1.4559225,0.02768 -0.1411113,0.0058 -0.27776,0.01412 -0.4051432,0.02324 -0.3884099,0.02781 -0.7455226,0.06533 -1.070878,0.09342 -0.2894278,0.02498 -0.5241031,0.04083 -0.7470597,0.04862 -0.041331,0.0014 -0.080639,0.0026 -0.1166352,0.0036 -0.072117,0.002 -0.1418485,0.0036 -0.2075758,0.0048 -0.4480214,0.0084 -0.9814906,0.0051 -1.3309628,0.005 -0.544098,-2.64e-4 -0.8655788,0.0051 -1.1571223,0.01509 a 0.41381215,0.41381215 90 0 0 0.028429,0.827136 z"
       id="path-1-55"
       inkscape:path-effect="#path-effect40;#path-effect41"
       inkscape:original-d="m 1.7655985,15.752449 c 0.9280966,-0.0319 1.858114,0.0024 2.7863351,-0.02759 0.7450407,-0.02403 1.489682,-0.133827 2.2345856,-0.165525 1.4965535,-0.06368 2.9992335,0.0099 4.4967588,-0.05517 1.005449,-0.04372 1.9991,-0.204464 3.007035,-0.248287 0.564546,-0.02455 1.147143,0.05121 1.710423,0 0.424793,-0.03862 0.883859,-0.11035 1.296612,-0.11035"
       style="fill:#ffff00;fill-opacity:1;fill-rule:nonzero;stroke:none" />
    <path
       style="fill:#ffff00;fill-opacity:1;stroke:none"
       d="M 1.1862615,17.849097 18.180147,18.456022"
       id="path41" />
    <path
       d="m 18.667838,17.98713 c -0.502674,0.01079 -1.092312,0.01272 -1.878331,-0.0016 -1.162231,-0.0211 -2.110524,-0.06028 -3.272754,-0.08138 -0.330541,-0.0054 -0.646213,-8.33e-4 -1.006331,0.0037 -0.295848,0.0037 -0.612162,0.0071 -0.923083,5.5e-5 -0.05186,-0.0012 -0.104648,-0.0027 -0.160019,-0.0046 -0.265528,-0.0087 -0.5341,-0.01947 -0.800472,-0.03896 -0.111171,-0.0081 -0.22249,-0.01784 -0.333581,-0.02966 -0.03149,-0.0034 -0.06359,-0.0069 -0.09623,-0.0108 -0.04854,-0.0059 -0.08575,-0.01396 -0.171889,-0.0296 -0.053737,-0.0098 -0.1298338,-0.02275 -0.2121247,-0.02787 -0.049234,-0.0031 -0.1048193,-0.0036 -0.1643035,0.0013 -0.4717763,0.03932 -0.9628392,0.07534 -1.456748,0.09673 -0.394412,0.01706 -0.7981526,0.02519 -1.2054738,0.01748 -0.3468525,-0.0066 -0.698521,-0.02469 -1.0513739,-0.05937 -0.144831,-0.01404 -0.2865299,-0.02662 -0.4311986,-0.03989 -0.310551,-0.0284 -0.6206279,-0.05834 -0.9277182,-0.09771 -0.1697932,-0.02181 -0.3383514,-0.04638 -0.5051089,-0.07588 -0.1285143,-0.02278 -0.2544319,-0.04818 -0.3776124,-0.07807 -0.093989,-0.02286 -0.1841698,-0.04778 -0.2707354,-0.07635 -0.043677,-0.01441 -0.085956,-0.02972 -0.1268697,-0.04608 -0.00398,-0.0016 -0.00798,-0.0031 -0.012013,-0.0046 -0.066665,-0.02428 -0.1287348,-0.03315 -0.1529027,-0.03678 -0.055736,-0.0079 -0.1051127,-0.01168 -0.1455317,-0.01417 -0.071449,-0.0043 -0.1399677,-0.0058 -0.2027143,-0.0065 -0.1073829,-0.0011 -0.2124893,4e-4 -0.3118572,0.0026 -0.16205,0.0037 -0.3221397,0.0098 -0.4738726,0.01626 -0.1953504,0.0083 -0.4083907,0.01902 -0.5889133,0.02751 -0.098773,0.0046 -0.1870027,0.0086 -0.2757753,0.01167 -0.050221,0.0017 -0.091634,0.0028 -0.1318602,0.003 -8.9735e-4,3e-6 -0.002505,8e-6 -0.003969,1.3e-5 -8.9513e-4,0 -0.002474,2e-6 -0.003795,3e-6 a 0.41381215,0.41381215 90 0 0 9.4338e-4,0.827624 c 0.001321,-2e-6 0.0029,-3e-6 0.004702,-5e-6 0.00237,-7e-6 0.003978,-1.3e-5 0.005711,-1.9e-5 0.053089,-2.83e-4 0.1039393,-0.0018 0.1563635,-0.0035 0.094731,-0.0033 0.1874351,-0.0075 0.2863994,-0.0121 0.1845093,-0.0087 0.3924756,-0.01911 0.5854938,-0.02736 0.149494,-0.0064 0.3033244,-0.01223 0.4571372,-0.01572 0.094875,-0.0021 0.1901447,-0.0034 0.2846097,-0.0024 0.056136,6.15e-4 0.1096443,0.0019 0.1612243,0.005 0.031181,0.0019 0.055414,0.0041 0.07605,0.007 0.021351,0.0032 0.00901,0.0027 -0.010624,-0.0045 -0.00403,-0.0015 -0.00803,-0.003 -0.012012,-0.0046 0.058092,0.02322 0.1164256,0.04428 0.174698,0.06351 0.1126069,0.03717 0.2248931,0.06794 0.3347239,0.09465 0.1442873,0.03502 0.2877625,0.06381 0.4286999,0.08879 0.1831706,0.0324 0.3651914,0.05885 0.5440772,0.08183 0.3230215,0.04142 0.6457124,0.07247 0.9575725,0.100992 0.1476552,0.01354 0.2848367,0.02572 0.4262831,0.03942 0.3774606,0.0371 0.7512188,0.05622 1.1160954,0.06314 0.4283763,0.0081 0.8497657,-4.89e-4 1.2569316,-0.0181 0.509618,-0.02206 1.0129502,-0.05908 1.4898138,-0.09882 0.012104,-0.001 0.02661,-0.0012 0.043909,-7e-5 0.031499,0.002 0.06797,0.0075 0.115812,0.01617 0.062153,0.01129 0.1397348,0.02721 0.2216448,0.03708 0.03697,0.0044 0.07225,0.0083 0.106715,0.01198 0.121552,0.01294 0.242055,0.02341 0.360777,0.03211 0.283442,0.02074 0.565409,0.03191 0.833443,0.04072 0.05723,0.0019 0.11326,0.0036 0.168905,0.0048 0.327205,0.0074 0.657148,0.0038 0.951972,8.9e-5 0.363579,-0.0045 0.666274,-0.0089 0.982244,-0.0037 1.029709,0.01733 2.241615,0.06402 3.27149,0.08136 0.795306,0.01444 1.395991,0.01256 1.911124,0.0015 a 0.41381215,0.41381215 90 0 0 -0.01777,-0.827434 z"
       id="path-1-8"
       inkscape:path-effect="#path-effect42;#path-effect43"
       inkscape:original-d="m 18.676722,18.400847 c -1.720652,0.03694 -3.439256,-0.05362 -5.158859,-0.08276 -0.689022,-0.01168 -1.380294,0.02222 -2.06906,0 -0.430634,-0.01389 -0.868046,-0.03234 -1.296612,-0.08276 -0.1583725,-0.01863 -0.3082715,-0.06857 -0.4689867,-0.05517 -1.2449756,0.103748 -2.5319711,0.176884 -3.7794843,0.05517 -0.7720134,-0.07532 -2.0518848,-0.158654 -2.7587477,-0.4414 -0.2247875,-0.08991 -1.7550192,0.02759 -2.15182315,0.02759"
       style="fill:#ffff00;fill-opacity:1;fill-rule:nonzero;stroke:none" />
  </g>
</svg>
