<?xml version="1.0" encoding="UTF-8" standalone="no"?>
<!-- Created with Inkscape (http://www.inkscape.org/) -->

<svg
   width="20"
   height="20"
   viewBox="0 0 20 20"
   version="1.1"
   id="svg1"
   sodipodi:docname="head.svg"
   inkscape:export-filename="../Graphics/head_up.png"
   inkscape:export-xdpi="96"
   inkscape:export-ydpi="96"
   inkscape:version="1.3 (0e150ed, 2023-07-21)"
   xmlns:inkscape="http://www.inkscape.org/namespaces/inkscape"
   xmlns:sodipodi="http://sodipodi.sourceforge.net/DTD/sodipodi-0.dtd"
   xmlns="http://www.w3.org/2000/svg"
   xmlns:svg="http://www.w3.org/2000/svg">
  <sodipodi:namedview
     id="namedview1"
     pagecolor="#ffffff"
     bordercolor="#000000"
     borderopacity="0.25"
     inkscape:showpageshadow="2"
     inkscape:pageopacity="0.0"
     inkscape:pagecheckerboard="0"
     inkscape:deskcolor="#d1d1d1"
     inkscape:document-units="px"
     showgrid="true"
     inkscape:zoom="36.248332"
     inkscape:cx="9.5038857"
     inkscape:cy="10.248748"
     inkscape:window-width="1440"
     inkscape:window-height="1212"
     inkscape:window-x="762"
     inkscape:window-y="25"
     inkscape:window-maximized="0"
     inkscape:current-layer="layer1">
    <inkscape:grid
       id="grid1"
       units="px"
       originx="0"
       originy="0"
       spacingx="1"
       spacingy="1"
       empcolor="#0099e5"
       empopacity="0.30196078"
       color="#0099e5"
       opacity="0.14901961"
       empspacing="5"
       dotted="false"
       gridanglex="30"
       gridanglez="30"
       visible="true" />
  </sodipodi:namedview>
  <defs
     id="defs1" />
  <g
     inkscape:label="Livello 1"
     inkscape:groupmode="layer"
     id="layer1">
    <path
       style="fill:#0000ff"
       d="m 7.9451932,1.9587108 c 1.4334204,-1.95002269 2.6859158,-1.9855479 4.0553588,0.027588 m 0,0 7.945194,13.1592252 0.02758,4.882984 L 0,20.028508 0,14.952412 7.9451932,1.9587108"
       id="path1"
       sodipodi:nodetypes="cccccccc" />
    <path
       style="fill:#967b00;fill-opacity:1;stroke-width:0.0275875"
       d="M 5.6410872e-4,17.497357 0.00112822,14.98 3.9720678,8.4870573 C 6.1560844,4.9159388 8.0143341,1.8992483 8.1015119,1.7833004 8.4478793,1.322625 8.9232035,0.8888587 9.2969796,0.6923529 9.5821709,0.54241887 9.6790372,0.50142014 9.9848776,0.51645615 c 0.3060684,0.0150472 0.6153324,0.0961535 0.9126994,0.29718499 0.237104,0.16029237 0.630877,0.55867666 0.872768,0.88298866 0.107511,0.1441446 1.987855,3.2291141 4.178541,6.8554879 l 4.065828,6.4554703 -0.06897,2.572536 0.01379,2.434599 -9.9797694,-4e-6 L 0,20.014714 Z"
       id="path4"
       sodipodi:nodetypes="ccssssssscccccc" />
    <rect
       style="fill:#967b00;fill-opacity:1"
       id="rect4"
       width="2.0414739"
       height="1.931123"
       x="5.9864826"
       y="9.1314545" />
    <circle
       id="path5"
       style="fill:#967b00;stroke:#000000"
       cx="8.4969425"
       cy="4.3864088"
       r="0.013888347" />
    <circle
       id="path6"
       style="fill:#ffff00;stroke:#000000"
       cx="11.47639"
       cy="4.4415836"
       r="0.013888347" />
    <path
       style="fill:#2b0000;fill-opacity:1;stroke-width:0.0867243"
       d="M 6.8579128,10.835931 C 6.4979368,10.674131 6.4302616,10.596687 6.2330883,10.120916 L 6.0119651,9.587354 6.2176938,9.0711027 C 6.4080266,8.5934872 6.4579941,8.5395856 6.8853838,8.3508659 7.4592526,8.0974666 7.4995601,8.0967131 8.0476535,8.3291782 8.4575383,8.5030232 8.512359,8.5616498 8.717389,9.0454222 L 8.9406969,9.5723225 8.7129886,10.120579 c -0.2095131,0.504445 -0.2620972,0.56288 -0.6580773,0.731275 -0.5197301,0.221021 -0.674419,0.218962 -1.1969985,-0.01593 z"
       id="path7" />
    <path
       style="fill:#2b0000;fill-opacity:1;stroke-width:0.0887961"
       d="M 11.812019,10.830745 C 11.445264,10.664258 11.376313,10.584572 11.175423,10.095019 L 10.950118,9.5460019 11.15972,9.0147973 c 0.193927,-0.4914502 0.244838,-0.5469133 0.680266,-0.7410994 0.584678,-0.2607392 0.625746,-0.2615146 1.184164,-0.022315 0.417608,0.1788805 0.47346,0.2392053 0.682354,0.7369905 l 0.227522,0.5421627 -0.231985,0.5641369 c -0.213464,0.519058 -0.267035,0.579186 -0.670475,0.752458 -0.529523,0.227423 -0.687126,0.225306 -1.21955,-0.01639 z"
       id="path8" />
    <path
       style="fill:#ffff00;fill-opacity:1;stroke-width:0.0275875"
       d="M 11.309979,4.8443193 C 11.150559,4.7784289 11.140651,4.76849 11.074123,4.6077225 l -0.06945,-0.1678172 0.05906,-0.1508919 c 0.05473,-0.1398283 0.0718,-0.1571263 0.232838,-0.2359194 l 0.17378,-0.085028 0.169595,0.070182 c 0.163377,0.067608 0.172169,0.076401 0.239778,0.2397775 l 0.07018,0.1695957 -0.08503,0.1735741 c -0.07891,0.1610865 -0.09594,0.1778307 -0.236759,0.2327388 l -0.151731,0.059165 z"
       id="path9" />
    <path
       style="fill:#ffff00;fill-opacity:1;stroke-width:0.0275875"
       d="M 8.3581194,4.7891443 C 8.198699,4.723254 8.1887912,4.7133151 8.1222627,4.5525475 L 8.0528169,4.3847303 8.1118753,4.2338384 C 8.1666034,4.0940102 8.1836755,4.0767122 8.3447131,3.997919 L 8.5184926,3.912892 8.6880883,3.983074 c 0.163377,0.067608 0.1721691,0.076401 0.2397775,0.2397775 l 0.070182,0.1695957 -0.085028,0.1735741 C 8.8341098,4.727107 8.8170763,4.7438512 8.6762614,4.7987593 L 8.5245303,4.857924 Z"
       id="path10" />
  </g>
</svg>
